HIERARCHY
ROOT Hips
{
	OFFSET -3.958830 18.904000 13.208200
	CHANNELS 6 Xposition Yposition Zposition Zrotation Yrotation Xrotation 
	JOINT LHipJoint
	{
		OFFSET 0.000000 0.000000 0.000000
		CHANNELS 3 Zrotation Yrotation Xrotation
		JOINT LeftUpLeg
		{
			OFFSET 1.800000 -1.400000 0.085000
			CHANNELS 3 Zrotation Yrotation Xrotation
			JOINT LeftLeg
			{
				OFFSET 2.215000 -6.000000 0.000000
				CHANNELS 3 Zrotation Yrotation Xrotation
				JOINT LeftFoot
				{
					OFFSET 2.500000 -6.900000 0.000000
					CHANNELS 3 Zrotation Yrotation Xrotation
					JOINT LeftToeBase
					{
						OFFSET 0.200000 -0.500000 1.950000
						CHANNELS 3 Zrotation Yrotation Xrotation
						End Site
						{
							OFFSET 0.000000 0.000000 0.000000
						}
					}
				}
			}
		}
	}
	JOINT RHipJoint
	{
		OFFSET 0.000000 0.000000 0.000000
		CHANNELS 3 Zrotation Yrotation Xrotation
		JOINT RightUpLeg
		{
			OFFSET -1.800000 -1.400000 0.085000
			CHANNELS 3 Zrotation Yrotation Xrotation
			JOINT RightLeg
			{
				OFFSET -2.215000 -6.000000 0.000000
				CHANNELS 3 Zrotation Yrotation Xrotation
				JOINT RightFoot
				{
					OFFSET -2.500000 -6.900000 0.000000
					CHANNELS 3 Zrotation Yrotation Xrotation
					JOINT RightToeBase
					{
						OFFSET -0.200000 -0.500000 1.950000
						CHANNELS 3 Zrotation Yrotation Xrotation
						End Site
						{
							OFFSET 0.000000 0.000000 0.000000
						}
					}
				}
			}
		}
	}
	JOINT LowerBack
	{
		OFFSET 0.000000 0.000000 0.000000
		CHANNELS 3 Zrotation Yrotation Xrotation
		JOINT Spine
		{
			OFFSET -0.087000 1.940000 -0.288900
			CHANNELS 3 Zrotation Yrotation Xrotation
			JOINT Spine1
			{
				OFFSET 0.000000 1.950000 0.060000
				CHANNELS 3 Zrotation Yrotation Xrotation
				JOINT Neck
				{
					OFFSET 0.000000 0.000000 0.000000
					CHANNELS 3 Zrotation Yrotation Xrotation
					JOINT Neck1
					{
						OFFSET 0.000000 1.600000 0.340000
						CHANNELS 3 Zrotation Yrotation Xrotation
						JOINT Head
						{
							OFFSET 0.000000 1.667000 -0.240000
							CHANNELS 3 Zrotation Yrotation Xrotation
							End Site
							{
								OFFSET 0.000000 0.000000 0.000000
							}
						}
					}
				}
				JOINT LeftShoulder
				{
					OFFSET 0.000000 0.000000 0.000000
					CHANNELS 3 Zrotation Yrotation Xrotation
					JOINT LeftArm
					{
						OFFSET 2.700000 1.550000 -0.730000
						CHANNELS 3 Zrotation Yrotation Xrotation
						JOINT LeftForeArm
						{
							OFFSET 5.450000 0.000000 0.000000
							CHANNELS 3 Zrotation Yrotation Xrotation
							JOINT LeftHand
							{
								OFFSET 3.450000 0.000000 0.000000
								CHANNELS 3 Zrotation Yrotation Xrotation
								JOINT LeftHandIndex1
								{
									OFFSET 0.750000 0.000000 0.000000
									CHANNELS 3 Zrotation Yrotation Xrotation
									End Site
									{
										OFFSET 0.000000 0.000000 0.000000
									}
								}
							}
						}
					}
				}
				JOINT RightShoulder
				{
					OFFSET 0.000000 0.000000 0.000000
					CHANNELS 3 Zrotation Yrotation Xrotation
					JOINT RightArm
					{
						OFFSET -2.700000 1.550000 -0.730000
						CHANNELS 3 Zrotation Yrotation Xrotation
						JOINT RightForeArm
						{
							OFFSET -5.450000 0.000000 0.000000
							CHANNELS 3 Zrotation Yrotation Xrotation
							JOINT RightHand
							{
								OFFSET -3.450000 0.000000 0.000000
								CHANNELS 3 Zrotation Yrotation Xrotation
								JOINT RightHandIndex1
								{
									OFFSET -0.750000 0.000000 0.000000
									CHANNELS 3 Zrotation Yrotation Xrotation
									End Site
									{
										OFFSET 0.000000 0.000000 0.000000
									}
								}
							}
						}
					}
				}
			}
		}
	}
}
MOTION
Frames: 9
Frame Time: 0.016667
0.436000 16.105300 -3.870400 -3.536602 -7.597870 1.192193 -15.798513 13.515595 4.501113 15.958547 -7.170413 -11.630718 -29.996921 23.457581 39.651211 1.636663 11.615250 0.781761 0.171650 -0.262320 0.135540 17.814482 -7.620496 3.852238 1.517310 7.921464 -41.805190 7.619764 -6.397619 27.094132 -0.235219 -2.801055 3.585737 -0.386130 0.034000 0.210470 -1.979112 -7.193053 -9.246224 10.407919 -12.673543 30.872536 -0.276089 -4.584935 -18.334247 9.330082 -8.501022 -11.061178 -20.600723 10.672235 36.536415 -7.266150 8.788270 -11.305270 -10.338359 12.557213 0.134331 -60.853457 16.426236 -13.648175 -37.848851 -10.344549 -0.705690 -3.370040 2.925165 0.848240 -0.151470 0.184210 0.222120 -5.553783 -4.398571 7.009434 46.079232 -19.039110 -15.598082 -31.125991 19.602902 -1.234710 2.565466 -1.322054 -0.128940 0.000670 -0.067920 -0.189310 
0.418610 16.107920 -3.785010 -3.902008 -8.352621 2.732871 -15.793909 13.351737 4.603461 17.058486 -7.280044 -12.942807 -31.411004 24.152781 39.198569 1.705066 11.771710 0.762375 0.071770 -0.377830 0.062030 17.841449 -7.507051 3.916875 1.255991 8.269778 -42.409675 8.966381 -6.687734 26.547011 -0.185983 -2.868233 3.600660 -0.449680 0.112900 0.204630 -2.031488 -7.110768 -9.325566 12.102408 -13.051703 28.196080 -0.749553 -4.363982 -19.361870 9.550711 -8.070529 -10.877432 -18.756993 10.670715 35.574328 -7.862670 10.532160 -6.977440 -8.141546 14.761689 0.206517 -62.952375 17.534490 -13.833964 -37.257996 -8.971055 -0.931984 -3.453631 2.874910 0.801980 -0.082010 0.119300 0.222570 -8.288986 -6.779127 6.561407 49.971119 -18.694330 -16.553715 -38.874293 20.491121 -1.819179 2.635362 -1.420458 -0.162150 -0.010800 -0.030530 -0.180270 
0.396740 16.125110 -3.721430 -4.322461 -9.459189 3.704038 -15.789292 13.222995 4.699033 18.280428 -7.188531 -13.737611 -32.900308 24.681239 38.300873 1.760154 11.835163 0.753026 0.016490 -0.439920 0.034300 17.860868 -7.453590 3.932350 1.532900 8.590945 -42.073491 9.844069 -6.631334 25.372667 -0.144628 -2.773269 3.650030 -0.491470 0.141180 0.205100 -2.071083 -6.987257 -9.390123 13.273491 -12.922544 26.287007 -0.842873 -3.972191 -19.986157 9.516014 -7.489675 -10.564582 -16.970284 10.572890 35.356115 -8.268190 11.949320 -4.425400 -6.922784 16.588515 0.007407 -64.592177 18.046040 -13.882419 -36.076843 -7.460130 -1.196747 -3.509564 2.834061 0.771440 -0.049030 0.093230 0.215800 -9.611736 -8.872720 6.118017 53.306753 -18.384575 -17.010374 -46.431010 20.169466 -2.097520 2.715667 -1.497063 -0.169930 -0.034740 -0.018380 -0.176370 
0.372250 16.146650 -3.672530 -4.715567 -11.243502 4.609924 -15.787454 13.099661 4.797573 19.446504 -6.823763 -14.300020 -34.859750 25.245546 36.887835 1.809647 11.885746 0.755952 -0.037590 -0.506760 -0.002430 17.879220 -7.407445 3.944229 2.437444 9.051065 -41.282064 10.134559 -6.218285 23.583775 -0.084645 -2.537608 3.758682 -0.533060 0.187620 0.214460 -2.106009 -6.841865 -9.457350 14.141977 -12.369434 24.575909 -0.746185 -3.302775 -20.518802 9.377052 -6.981849 -10.398588 -15.621155 10.610687 35.484123 -8.141700 12.934800 -1.604470 -6.435705 17.935965 -0.141121 -65.927488 18.749267 -14.050627 -34.684979 -6.583867 -1.353183 -3.575940 2.782485 0.749060 -0.008030 0.065390 0.218310 -9.927460 -10.338611 5.806638 55.880199 -18.505213 -17.157587 -52.285551 19.302347 -1.935137 2.752565 -1.543654 -0.181820 -0.046190 0.001510 -0.169400 
0.338440 16.174710 -3.631840 -4.991231 -12.478900 5.105636 -15.798860 13.061697 4.890868 20.488600 -6.647476 -14.720583 -35.919148 25.636136 36.244136 1.823995 11.957219 0.745806 -0.081450 -0.561420 -0.035670 17.874208 -7.406103 3.887223 3.593014 9.140700 -39.781200 9.841433 -5.623389 21.369135 -0.012332 -2.223325 3.904167 -0.558140 0.230240 0.207380 -2.085995 -6.812803 -9.500382 14.456535 -11.729203 23.150719 -0.065427 -2.664644 -20.949897 9.149706 -6.765596 -10.264359 -15.201420 10.728962 35.892564 -7.902770 13.354050 0.668140 -5.904465 19.181128 -0.268815 -67.219653 19.019505 -13.877864 -33.780567 -5.988352 -1.374814 -3.628637 2.720010 0.742830 0.024300 0.037120 0.221550 -9.968893 -11.553041 5.444793 57.534519 -18.649756 -16.840280 -57.471780 17.200212 -0.946215 2.784111 -1.573331 -0.208170 -0.034390 0.022540 -0.169360 
0.308400 16.200840 -3.616800 -4.758044 -13.757586 5.339427 -15.822667 13.049154 4.953786 20.773935 -6.595352 -15.176855 -36.503677 25.881432 36.000336 1.844623 12.002233 0.737286 -0.108750 -0.594060 -0.048520 17.851761 -7.419736 3.844509 4.384970 9.079814 -38.719715 9.467333 -5.130065 19.639798 0.041579 -1.988816 3.998401 -0.574080 0.254210 0.206590 -2.015313 -6.802906 -9.546576 13.597079 -10.847487 22.080155 1.337378 -2.159448 -21.184858 8.761399 -6.621868 -10.096359 -15.096645 10.960494 36.402489 -7.455730 13.551540 2.665340 -5.641708 19.867444 -0.250697 -68.568187 18.853870 -13.569356 -32.827926 -5.811088 -1.296294 -3.674291 2.685000 0.723530 0.047000 0.017390 0.213840 -9.281075 -12.275124 4.951863 58.240218 -18.392125 -16.067674 -62.587605 14.464328 0.553566 2.817603 -1.619341 -0.214500 -0.035470 0.037750 -0.167740 
0.287540 16.223720 -3.614010 -4.692228 -15.030370 5.357388 -15.836164 13.048435 4.989917 21.016479 -6.596765 -15.401941 -36.768492 26.023560 35.961554 1.826233 12.058355 0.721842 -0.130900 -0.626790 -0.065740 17.842165 -7.430006 3.796027 5.215377 8.987128 -37.607481 9.104345 -4.776939 18.292286 0.084039 -1.826988 4.071226 -0.576310 0.284350 0.193140 -1.980824 -6.818712 -9.554425 13.144569 -10.405613 21.210034 2.470493 -2.042356 -20.948722 8.348770 -6.742944 -10.158233 -15.610071 11.692343 36.844791 -6.695070 13.705240 4.244380 -5.208906 19.740198 0.217518 -70.202742 18.877926 -13.768046 -32.562181 -6.775564 -1.112677 -3.698976 2.647524 0.728050 0.065620 -0.008530 0.211120 -8.760500 -12.172132 4.491582 58.831659 -17.257562 -15.351597 -65.077594 10.996449 2.543862 2.830322 -1.640663 -0.245090 -0.016670 0.058330 -0.176410 
0.274100 16.241520 -3.623360 -4.635988 -15.795017 5.235163 -15.839235 13.053610 4.993963 21.049528 -6.750846 -15.821411 -36.110973 26.028462 36.675761 1.803534 12.149591 0.702509 -0.158330 -0.666990 -0.088360 17.843384 -7.441801 3.756814 5.734196 8.864492 -36.912973 8.821766 -4.568611 17.464387 0.119530 -1.749111 4.106939 -0.579590 0.332480 0.190220 -1.978120 -6.837362 -9.524018 13.002454 -10.159388 20.664815 3.150980 -2.007435 -20.931577 7.942360 -7.081036 -9.944614 -16.437790 12.227160 36.456182 -6.170840 13.598890 5.597470 -5.457587 19.839617 0.338471 -70.479160 18.662716 -13.516440 -33.116218 -8.167991 -0.758422 -3.730523 2.644846 0.717090 0.096730 -0.045180 0.208640 -7.618824 -12.207707 3.929326 58.555459 -16.433198 -14.304706 -67.821648 7.301782 5.076153 2.842374 -1.672010 -0.273110 0.005280 0.087500 -0.178120 
0.264690 16.248470 -3.645520 -4.099404 -17.104947 4.873319 -15.825276 13.051784 4.948888 20.312338 -6.836294 -15.897415 -35.347074 26.011900 37.464593 1.773780 12.221048 0.692116 -0.170540 -0.706500 -0.079060 17.853095 -7.511030 3.737616 5.866809 8.728094 -36.616643 8.609589 -4.480183 17.234057 0.142115 -1.738464 4.105742 -0.578910 0.360120 0.181340 -2.002233 -6.719173 -9.477647 12.164668 -9.678516 20.134472 3.739753 -2.124968 -20.294823 7.423073 -7.207620 -9.904842 -16.881892 12.681929 36.282014 -5.747300 13.656100 6.768850 -4.951360 19.412585 0.923593 -70.923262 18.378182 -13.567197 -34.512481 -10.321391 -0.234969 -3.730579 2.660811 0.722220 0.115140 -0.079780 0.197810 -7.047318 -12.004170 3.365731 59.463408 -15.139706 -13.805159 -69.179326 4.524463 6.984832 2.840284 -1.698180 -0.308340 0.017950 0.104880 -0.197900 
